<svg viewBox="16 57 469 238" xmlns="http://www.w3.org/2000/svg" preserveAspectRatio="none" version="1.1" style="max-height: 500px" width="469" height="238"><svg preserveAspectRatio="none" xmlns:xlink="http://www.w3.org/1999/xlink" xmlns="http://www.w3.org/2000/svg" y="81.0871px" x="41.5px" height="337.8258560526316" width="417" viewBox="325 124.3245 380 307.8509"><defs/><style>.companyName028cb2b8-71fa-43a0-adce-6cb6c217ee5c {fill:#5B4B42;fill-opacity:1;}.icon1028cb2b8-71fa-43a0-adce-6cb6c217ee5c {fill:#B3D0D9;fill-opacity:1;}.icon2028cb2b8-71fa-43a0-adce-6cb6c217ee5c {fill:#99A08E;fill-opacity:1;}.icon3-str028cb2b8-71fa-43a0-adce-6cb6c217ee5c {stroke:#DFC4B5;stroke-opacity:1;}.icon3028cb2b8-71fa-43a0-adce-6cb6c217ee5c {fill:#DFC4B5;fill-opacity:1;}.text028cb2b8-71fa-43a0-adce-6cb6c217ee5c {fill:#5D4B40;fill-opacity:1;}</style><defs>
      <filter color-interpolation-filters="sRGB" primitiveUnits="userSpaceOnUse" filterUnits="userSpaceOnUse" id="028cb2b8-71fa-43a0-adce-6cb6c217ee5cglobal" height="307.8509" width="380" y="124.3245" x="325">
        <feColorMatrix values="0.3333 0.3333 0.3333 0 0 0.3333 0.3333 0.3333 0 0 0.3333 0.3333 0.3333 0 0 0 0 0 1 0" type="matrix"/><feColorMatrix values="-1 0 0 0 1 0 -1 0 0 1 0 0 -1 0 1 0 0 0 1 0" type="matrix"/>
      </filter></defs><g filter="url(#028cb2b8-71fa-43a0-adce-6cb6c217ee5cglobal)"><g transform="rotate(0 325 124.3245)" opacity="1">
<svg viewBox="20 63 160.02684020996094 74" preserveAspectRatio="none" version="1.1" y="124.3245" x="325" height="175.7205" width="380">
  <g transform="matrix(1 0 0 1 0 0)"><g><path class="icon1028cb2b8-71fa-43a0-adce-6cb6c217ee5c" data-color="1" d="M20 135.2l48-2.4L69.8 67l-46.4-.5-3.4 68.7z"/><path class="icon2028cb2b8-71fa-43a0-adce-6cb6c217ee5c" data-color="2" d="M134.7 137l-44.3-.5-3.1-72.1L135 63l.5 20.1s-28.9-1-27.2 17.2 30.4 12.9 30.4 12.9l-4 23.8z"/><path class="icon3028cb2b8-71fa-43a0-adce-6cb6c217ee5c" data-color="3" d="M153.9 86.8c-2.6 2.3-6 10.4-5.2 13.9.9 3.5 2.6 11.6 6.9 11.6s14.6 2.3 18-1.2c1.5-1.5 6.1-6.1 6.4-10.6.4-5.7-3.8-11.3-3.8-11.3l-12-3.5-10.3 1.1z"/></g></g>
</svg>
</g><g transform="rotate(0 434.3912 407.9515)" opacity="1">
<svg viewBox="2 -33.48 244.07999999999998 36.68" preserveAspectRatio="none" version="1.1" y="407.9515" x="434.3912" height="24.2239" width="161.2175">
  <g class="text028cb2b8-71fa-43a0-adce-6cb6c217ee5c" transform="matrix(1 0 0 1 0 0)"><path d="M21.36-14.92L26.84-14.92L25.88-14.08C26.84-13.76 27.88-13.32 28.92-12.84L21.36-12.72ZM9.04-16.92L9.04-19.40L18.48-19.40L18.48-16.92ZM9.04-23.72L18.48-23.72L18.48-21.32L9.04-21.32ZM31.08-23.72L31.08-21.32L21.36-21.32L21.36-23.72ZM31.08-16.92L21.36-16.92L21.36-19.40L31.08-19.40ZM38.04-8.28L28.52-8.28L28.52-10.84L32.48-10.96C33.36-10.40 34.16-9.84 34.76-9.36L36.52-11.04C34.92-12.28 32.08-13.84 29.36-14.92L34-14.92L34-25.76L21.36-25.76L21.36-28L36.44-28L36.44-30.40L21.36-30.40L21.36-33.40L18.48-33.40L18.48-30.40L3.16-30.40L3.16-28L18.48-28L18.48-25.76L6.24-25.76L6.24-14.92L18.48-14.92L18.48-12.72C12.76-12.64 7.52-12.60 3.56-12.60L3.68-10.28C9.44-10.36 17.44-10.52 25.64-10.76L25.64-8.28L2-8.28L2-5.84L10.28-5.84L8.32-4.16C10.72-2.68 13.52-0.52 14.92 1.04L17.04-0.92C15.64-2.40 12.84-4.48 10.48-5.84L25.64-5.84L25.64-0.20C25.64 0.32 25.44 0.48 24.84 0.52C24.20 0.56 21.96 0.56 19.52 0.48C19.92 1.20 20.36 2.28 20.48 3.04C23.68 3.04 25.68 3.04 26.92 2.60C28.20 2.20 28.52 1.40 28.52-0.12L28.52-5.84L38.04-5.84Z M67.56-23.84C67-22.48 66.20-20.84 65.52-19.68L65.92-19.56L56.52-19.56L57.80-19.84C57.48-20.92 56.68-22.60 55.80-23.84ZM79.04-6.44L79.04-8.96L63-8.96L63-11.92L75.52-11.92L75.52-14.20L63-14.20L63-17.12L77.48-17.12L77.48-19.56L68.40-19.56C69.20-20.76 70.08-22.32 70.88-23.84L78.88-23.84L78.88-26.40L72.68-26.40C73.80-27.92 75.08-30.12 76.20-32.16L73.16-32.96C72.44-31.16 71.16-28.56 70.12-26.88L71.60-26.40L66.76-26.40L66.76-33.48L63.96-33.48L63.96-26.40L59.20-26.40L59.20-33.48L56.44-33.48L56.44-26.40L51.52-26.40L53.56-27.16C52.96-28.76 51.52-31.24 50.16-33.04L47.64-32.20C48.84-30.40 50.24-28 50.80-26.40L44.44-26.40L44.44-23.84L54.20-23.84L52.80-23.56C53.60-22.36 54.40-20.76 54.76-19.56L46.04-19.56L46.04-17.12L60.08-17.12L60.08-14.20L48.04-14.20L48.04-11.92L60.08-11.92L60.08-8.96L44.28-8.96L44.28-6.44L57.36-6.44C53.76-3.64 48.20-1.24 43.24-0.12C43.88 0.52 44.76 1.64 45.16 2.40C50.40 0.88 56.24-2 60.08-5.48L60.08 3.04L63 3.04L63-5.68C66.84-2 72.68 1 78.04 2.52C78.44 1.68 79.36 0.52 80.04-0.12C74.92-1.20 69.40-3.56 65.76-6.44Z M93.16-23L97.96-23L97.96-25.80L93.16-25.80L93.16-33.48L90.36-33.48L90.36-25.80L85.28-25.80L85.28-23L90.20-23C89.08-17.52 86.72-11.24 84.28-7.88C84.84-7.20 85.52-5.92 85.84-5.04C87.52-7.52 89.12-11.52 90.36-15.64L90.36 3.04L93.16 3.04L93.16-17.36C94.16-15.44 95.28-13.24 95.80-12.04L97.64-14.24C97.00-15.36 94.24-19.68 93.16-21.24ZM103.76-8L110.64-8L110.64-2.56L103.76-2.56ZM110.64-18.52L103.76-18.52L103.76-23.56L110.64-23.56ZM110.64-10.68L103.76-10.68L103.76-15.80L110.64-15.80ZM121.08-2.56L113.44-2.56L113.44-8L119.60-8L119.60-10.68L113.44-10.68L113.44-15.80L119.60-15.80L119.60-18.52L113.44-18.52L113.44-23.56L120.80-23.56L120.80-26.28L112.12-26.28L114.60-27.40C114.12-29 112.92-31.36 111.80-33.16L109.28-32.12C110.36-30.32 111.52-27.88 111.96-26.28L104.44-26.28C105.40-28.36 106.32-30.48 107.00-32.48L104.12-33.24C102.68-28.56 99.80-22.64 96.36-18.92C96.92-18.40 97.76-17.32 98.16-16.76C99.16-17.80 100.08-19 100.96-20.28L100.96 3.12L103.76 3.12L103.76 0.20L121.08 0.20Z M136.08-5.56L136.08-8.72L153.48-8.72L153.48-5.56ZM153.48-14L153.48-10.92L136.08-10.92L136.08-14ZM156.36-16.40L133.28-16.40L133.28 3.08L136.08 3.08L136.08-3.32L153.48-3.32L153.48-0.12C153.48 0.44 153.28 0.60 152.72 0.64C152.08 0.64 149.92 0.68 147.68 0.60C148.04 1.32 148.44 2.32 148.56 3.08C151.60 3.08 153.60 3.04 154.84 2.64C156.00 2.20 156.36 1.48 156.36-0.08ZM136.48-24.80L144.60-24.80L144.60-21.44L136.48-21.44ZM152.96-29.40L152.96-21.44L147.24-21.44L147.24-26.84L136.48-26.84L136.48-29.40ZM155.88-21.44L155.88-31.76L133.64-31.76L133.64-21.44L128.08-21.44L128.08-13.84L130.80-13.84L130.80-18.84L158.68-18.84L158.68-13.84L161.52-13.84L161.52-21.44Z M174.12-18.44C177.48-22.04 180.52-26.72 182.56-31.80L179.40-32.68C177.08-26.60 173.04-21.08 168.28-17.64C169.04-17.08 170.28-15.96 170.84-15.36C171.88-16.24 172.96-17.20 173.96-18.28L173.96-15.52L181.64-15.52C180.72-8.80 178.52-2.48 169.12 0.68C169.76 1.24 170.60 2.44 171.00 3.20C181.04-0.48 183.68-7.64 184.76-15.52L195.60-15.52C195.12-5.60 194.56-1.68 193.56-0.68C193.12-0.28 192.68-0.16 191.84-0.16C190.88-0.16 188.48-0.20 185.88-0.44C186.44 0.40 186.80 1.64 186.84 2.52C189.32 2.68 191.80 2.72 193.12 2.60C194.52 2.52 195.36 2.20 196.24 1.20C197.60-0.32 198.12-4.88 198.68-17C198.72-17.40 198.76-18.44 198.76-18.44ZM190.56-31.64C193.36-25.76 198.12-19.36 202.28-15.72C202.84-16.52 203.88-17.64 204.68-18.24C200.52-21.36 195.72-27.36 193.24-32.76Z M224.88-12.68C224.08-13.88 220.76-18.36 219.36-20.04L219.36-22.08L225.20-22.08L225.20-24.92L219.36-24.92L219.36-33.48L216.48-33.48L216.48-24.92L210.52-24.92L210.52-22.08L216.16-22.08C214.84-16.60 212.08-10.36 209.44-7.04C209.92-6.32 210.68-5.16 211.00-4.36C213.04-7.04 215.00-11.36 216.48-15.84L216.48 3.04L219.36 3.04L219.36-16.36C220.72-14.24 222.28-11.72 222.96-10.32ZM246.08-19.88L230.08-19.88L230.08-27C234.88-27.88 240.08-29.16 243.80-30.68L241.28-33C238.04-31.52 232.32-30 227.28-29.08L227.28-16.84C227.28-11.28 226.92-3.84 223.32 1.48C224.00 1.72 225.24 2.52 225.76 3C229.52-2.52 230.08-10.88 230.08-16.84L230.08-17.04L237.36-17.04L237.36 3.08L240.28 3.08L240.28-17.04L246.08-17.04Z" id="id-028cb2b8-71fa-43a0-adce-6cb6c217ee5c6izo4zJp6"/></g>
</svg>
</g><g transform="rotate(0 325 344.0885)" opacity="1">
<svg viewBox="1.08 -33.56 317.16 36.760000000000005" preserveAspectRatio="none" version="1.1" y="344.0885" x="325" height="44.0434" width="380">
  <g class="companyName028cb2b8-71fa-43a0-adce-6cb6c217ee5c" transform="matrix(1 0 0 1 0 0)"><path d="M9.96-23L14.76-23L14.76-25.80L9.96-25.80L9.96-33.48L7.16-33.48L7.16-25.80L2.08-25.80L2.08-23L7-23C5.88-17.52 3.52-11.24 1.08-7.88C1.64-7.20 2.32-5.92 2.64-5.04C4.32-7.52 5.92-11.52 7.16-15.64L7.16 3.04L9.96 3.04L9.96-17.36C10.96-15.44 12.08-13.24 12.60-12.04L14.44-14.24C13.80-15.36 11.04-19.68 9.96-21.24ZM20.56-8L27.44-8L27.44-2.56L20.56-2.56ZM27.44-18.52L20.56-18.52L20.56-23.56L27.44-23.56ZM27.44-10.68L20.56-10.68L20.56-15.80L27.44-15.80ZM37.88-2.56L30.24-2.56L30.24-8L36.40-8L36.40-10.68L30.24-10.68L30.24-15.80L36.40-15.80L36.40-18.52L30.24-18.52L30.24-23.56L37.60-23.56L37.60-26.28L28.92-26.28L31.40-27.40C30.92-29 29.72-31.36 28.60-33.16L26.08-32.12C27.16-30.32 28.32-27.88 28.76-26.28L21.24-26.28C22.20-28.36 23.12-30.48 23.80-32.48L20.92-33.24C19.48-28.56 16.60-22.64 13.16-18.92C13.72-18.40 14.56-17.32 14.96-16.76C15.96-17.80 16.88-19 17.76-20.28L17.76 3.12L20.56 3.12L20.56 0.20L37.88 0.20Z M51.28-5.56L51.28-8.72L68.68-8.72L68.68-5.56ZM68.68-14L68.68-10.92L51.28-10.92L51.28-14ZM71.56-16.40L48.48-16.40L48.48 3.08L51.28 3.08L51.28-3.32L68.68-3.32L68.68-0.12C68.68 0.44 68.48 0.60 67.92 0.64C67.28 0.64 65.12 0.68 62.88 0.60C63.24 1.32 63.64 2.32 63.76 3.08C66.80 3.08 68.80 3.04 70.04 2.64C71.20 2.20 71.56 1.48 71.56-0.08ZM51.68-24.80L59.80-24.80L59.80-21.44L51.68-21.44ZM68.16-29.40L68.16-21.44L62.44-21.44L62.44-26.84L51.68-26.84L51.68-29.40ZM71.08-21.44L71.08-31.76L48.84-31.76L48.84-21.44L43.28-21.44L43.28-13.84L46-13.84L46-18.84L73.88-18.84L73.88-13.84L76.72-13.84L76.72-21.44Z M113.52-32.64C111.24-29.44 107.16-26.12 103.64-24.16C104.40-23.64 105.28-22.72 105.80-22.12C109.48-24.36 113.60-27.92 116.28-31.48ZM114.84-21.92C112.32-18.48 107.68-14.96 103.68-13C104.44-12.44 105.28-11.52 105.76-10.88C109.96-13.20 114.64-16.92 117.52-20.80ZM99.40-27.64L87.28-27.64L87.28-30L99.40-30ZM99.40-23.24L87.28-23.24L87.28-25.68L99.40-25.68ZM102.32-32.04L84.44-32.04L84.44-21.24L102.32-21.24ZM103.68-18.68L94.96-18.68C94.60-19.52 94.08-20.44 93.60-21.16L90.88-20.48C91.16-19.96 91.48-19.32 91.80-18.68L82.48-18.68L82.48-16.28L103.68-16.28ZM86.28-5.80C85.40-3.72 83.96-1.60 82.36-0.12C83 0.28 84 1.12 84.48 1.52C86.08-0.12 87.80-2.68 88.80-5.04ZM87.56-12.16L98.96-12.16L98.96-8.80L87.56-8.80ZM101.88-6.68L101.88-14.28L84.80-14.28L84.80-6.68L91.76-6.68L91.76-0.12C91.76 0.24 91.68 0.40 91.20 0.40C90.80 0.44 89.44 0.44 87.80 0.40C88.20 1.12 88.56 2.08 88.72 2.84C90.92 2.84 92.44 2.84 93.40 2.40C94.40 2 94.68 1.36 94.68-0.08L94.68-6.68ZM96.72-4.84C98.08-3 99.60-0.48 100.32 1.08L102.56-0.08C101.84-1.64 100.24-4.04 98.80-5.84ZM115.64-10.48C112.88-5.88 107.72-1.76 102.48 0.56C103.20 1.16 104.08 2.12 104.56 2.84C110.04 0.12 115.28-4.32 118.36-9.40Z M130.60-33.32C128.48-27.28 125.04-21.32 121.36-17.44C121.84-16.76 122.72-15.24 123.04-14.52C124.20-15.80 125.40-17.32 126.48-18.92L126.48 2.96L129.32 2.96L129.32-23.52C130.88-26.32 132.28-29.40 133.40-32.44ZM137.04-22.76L144.08-22.76C143.88-21.64 143.48-20.20 142.52-18.76L137.04-18.76ZM146.64-28.28C145.92-27.16 145.08-25.92 144.24-25.04L136.80-25.04C137.80-26.08 138.64-27.20 139.44-28.28ZM153.04-18.76L145.40-18.76C146.12-20.20 146.44-21.60 146.52-22.76L153.04-22.76ZM154.24-14.76C152.36-13.44 149.44-11.68 146.96-10.40C146.08-12.28 144.80-14.04 143.04-15.48C143.36-15.80 143.68-16.12 143.96-16.48L155.80-16.48L155.80-25.04L147.32-25.04C148.48-26.40 149.64-28 150.52-29.48L148.76-30.76L148.24-30.60L141-30.60C141.44-31.40 141.92-32.16 142.32-32.92L139.52-33.44C137.84-30.08 134.72-25.84 130.32-22.76C130.96-22.36 131.84-21.52 132.24-20.88C133-21.44 133.68-22 134.36-22.64L134.36-16.48L140.52-16.48C138.64-14.80 135.76-13.16 131.56-11.80C132.16-11.32 132.88-10.48 133.24-9.96C136.80-11.12 139.44-12.52 141.40-13.96C142-13.44 142.60-12.76 143.08-12.08C140.40-9.72 135.48-7.24 131.60-6.08C132.08-5.64 132.84-4.76 133.24-4.16C136.72-5.44 141.20-7.92 144.12-10.40C144.52-9.68 144.84-8.92 145.08-8.16C141.88-4.96 136.08-1.92 131.20-0.44C131.80 0.04 132.52 1 132.92 1.64C137.20 0.16 142.20-2.60 145.64-5.72C146-3.20 145.56-1.04 144.72-0.20C144.12 0.48 143.52 0.56 142.76 0.56C142.04 0.56 141.16 0.52 140.12 0.40C140.56 1.12 140.80 2.24 140.84 2.96C141.72 3.04 142.60 3.04 143.28 3.04C144.76 3.04 145.76 2.76 146.76 1.68C148.48 0.04 149.04-4.20 147.68-8.40C148.32-8.68 149-9 149.64-9.32C151.04-5 153.52-1.20 156.76 0.80C157.16 0.08 158-0.92 158.68-1.44C155.52-3.08 153.08-6.56 151.80-10.40C153.36-11.20 154.88-12.04 156.24-12.92Z M167.72-18.44C171.08-22.04 174.12-26.72 176.16-31.80L173-32.68C170.68-26.60 166.64-21.08 161.88-17.64C162.64-17.08 163.88-15.96 164.44-15.36C165.48-16.24 166.56-17.20 167.56-18.28L167.56-15.52L175.24-15.52C174.32-8.80 172.12-2.48 162.72 0.68C163.36 1.24 164.20 2.44 164.60 3.20C174.64-0.48 177.28-7.64 178.36-15.52L189.20-15.52C188.72-5.60 188.16-1.68 187.16-0.68C186.72-0.28 186.28-0.16 185.44-0.16C184.48-0.16 182.08-0.20 179.48-0.44C180.04 0.40 180.40 1.64 180.44 2.52C182.92 2.68 185.40 2.72 186.72 2.60C188.12 2.52 188.96 2.20 189.84 1.20C191.20-0.32 191.72-4.88 192.28-17C192.32-17.40 192.36-18.44 192.36-18.44ZM184.16-31.64C186.96-25.76 191.72-19.36 195.88-15.72C196.44-16.52 197.48-17.64 198.28-18.24C194.12-21.36 189.32-27.36 186.84-32.76Z M216.88-12.68C216.08-13.88 212.76-18.36 211.36-20.04L211.36-22.08L217.20-22.08L217.20-24.92L211.36-24.92L211.36-33.48L208.48-33.48L208.48-24.92L202.52-24.92L202.52-22.08L208.16-22.08C206.84-16.60 204.08-10.36 201.44-7.04C201.92-6.32 202.68-5.16 203-4.36C205.04-7.04 207-11.36 208.48-15.84L208.48 3.04L211.36 3.04L211.36-16.36C212.72-14.24 214.28-11.72 214.96-10.32ZM238.08-19.88L222.08-19.88L222.08-27C226.88-27.88 232.08-29.16 235.80-30.68L233.28-33C230.04-31.52 224.32-30 219.28-29.08L219.28-16.84C219.28-11.28 218.92-3.84 215.32 1.48C216 1.72 217.24 2.52 217.76 3C221.52-2.52 222.08-10.88 222.08-16.84L222.08-17.04L229.36-17.04L229.36 3.08L232.28 3.08L232.28-17.04L238.08-17.04Z M251.52-9C249.44-6.16 246.16-3.20 242.96-1.28C243.76-0.88 244.96 0.12 245.56 0.68C248.56-1.44 252.08-4.76 254.48-7.96ZM271.76-12.28C272.88-10.96 273.88-9.68 274.56-8.68L276.92-10.12C275.28-12.52 271.88-16.20 268.76-18.92L266.52-17.76C267.56-16.76 268.68-15.68 269.72-14.52L252.24-13.40C258.24-16.28 264.32-19.96 270.16-24.40L267.88-26.32C265.88-24.68 263.68-23.08 261.52-21.64L251.84-21.16C254.68-23.20 257.60-25.80 260.20-28.52C265.40-29.04 270.32-29.80 274.12-30.72L272-33.16C265.60-31.56 254.04-30.52 244.40-30C244.72-29.32 245.08-28.16 245.16-27.40C248.64-27.56 252.36-27.80 256.08-28.12C253.48-25.40 250.56-23.04 249.52-22.40C248.36-21.48 247.44-20.88 246.60-20.80C246.92-20.04 247.32-18.68 247.48-18.12C248.24-18.44 249.52-18.60 257.64-19.08C254.20-17 251.28-15.40 249.92-14.76C247.44-13.52 245.68-12.76 244.36-12.60C244.72-11.80 245.16-10.44 245.28-9.84C246.40-10.28 247.96-10.52 258.88-11.32L258.88-0.92C258.88-0.44 258.76-0.28 258.08-0.24C257.44-0.24 255.28-0.24 252.88-0.32C253.36 0.52 253.88 1.72 254 2.60C256.92 2.60 258.92 2.60 260.20 2.08C261.52 1.60 261.88 0.80 261.88-0.88L261.88-11.56ZM265.40-7.68C268.72-5.12 272.80-1.48 274.76 0.76L277.28-1.04C275.16-3.28 271.04-6.80 267.76-9.20Z M317.72-15.48C316.56-17.76 313.96-21.48 311.84-24.28L309.56-23.12C310.48-21.96 311.44-20.64 312.28-19.28L302-18.40C303.48-20.48 305.48-23.32 306.92-25.52L317.52-25.52L317.52-28.24L308.52-28.24C307.92-29.68 306.92-31.88 306-33.52L303.40-32.72C304.12-31.36 304.84-29.64 305.40-28.24L296.44-28.24L296.44-25.52L303.64-25.52C302.04-23.16 299.68-19.84 298.88-19C298.16-18.32 297.20-18 296.48-17.84C296.76-17.20 297.32-15.76 297.44-15C298.44-15.48 300.04-15.68 313.72-16.96C314.36-15.92 314.92-14.92 315.28-14.12ZM296.44-10.24C296-12.36 294.88-15.84 293.76-18.48L291.48-17.80C291.92-16.64 292.40-15.24 292.80-13.92L286.40-13.08C289.64-16.72 292.80-21.28 295.40-25.84L292.92-27.32C292.04-25.56 291.04-23.80 289.96-22.16L285.64-21.80C287.84-24.80 290.04-28.68 291.76-32.40L289.04-33.56C287.44-29.24 284.64-24.68 283.76-23.52C282.96-22.36 282.24-21.52 281.60-21.32C281.88-20.60 282.36-19.20 282.52-18.60C283.08-18.88 283.96-19.08 288.24-19.56C286.76-17.40 285.44-15.72 284.80-15C283.60-13.56 282.68-12.56 281.80-12.40C282.16-11.64 282.60-10.24 282.76-9.64C283.56-10.04 284.76-10.36 293.44-11.60C293.64-10.84 293.80-10.08 293.92-9.44ZM283.52-7.92C283.12-4.64 282.52-1.04 281.60 1.44C282.20 1.64 283.36 2.04 283.84 2.32C284.68-0.20 285.44-4 285.84-7.52ZM287.56-7.60C288-4.88 288.44-1.20 288.56 1.16L290.84 0.76C290.72-1.64 290.20-5.24 289.68-8ZM291.40-8.36C292.16-6.20 293.04-3.36 293.36-1.44L295.48-2.16C295.12-4 294.24-6.84 293.36-9ZM300.88-14.12C300.64-6.08 299.84-1.60 293.64 0.88C294.32 1.40 295.08 2.52 295.44 3.20C302.28 0.20 303.40-5.08 303.72-14.12ZM311.80-0.48C310.96-0.48 310.80-0.64 310.80-1.64L310.80-14.08L308-14.08L308-1.64C308 1.28 308.68 2.12 311.44 2.12L314.88 2.12C317.28 2.12 318 0.72 318.24-4.84C317.48-5 316.32-5.44 315.72-6C315.60-1.20 315.44-0.48 314.60-0.48Z" id="id-028cb2b8-71fa-43a0-adce-6cb6c217ee5cD6z1nYkh8"/></g>
</svg>
</g></g></svg></svg>